<svg width="120" height="72" viewBox="0 0 120 72" fill="none" xmlns="http://www.w3.org/2000/svg">
<path d="M65.4355 32.4613C65.3143 32.4274 65.2116 32.3819 65.1144 32.3915C64.6051 32.4421 64.5819 32.4346 64.3742 32.0465C64.1418 32.0863 63.9337 32.1486 63.7299 32.137C63.6818 32.1343 63.6478 31.883 63.5995 31.7197C63.1729 31.6133 62.8633 31.2475 63.0245 30.9929C62.654 30.9295 62.3976 30.619 62.3662 30.1776C62.122 30.2091 61.9605 30.1507 61.8413 29.8818C61.7233 29.6155 61.4774 29.4059 61.2889 29.1704C61.265 29.1406 61.2313 29.1048 61.2313 29.0719C61.2317 28.7862 61.1433 28.5403 60.987 28.2958C60.9064 28.1696 60.955 27.9668 60.9217 27.8034C60.8469 27.4364 60.9884 27.0276 60.7014 26.6979C60.6597 26.65 60.6843 26.5415 60.684 26.4611C60.6824 25.9763 60.6704 25.4911 60.6867 25.0069C60.6955 24.747 60.6 24.4751 60.8432 24.2311C60.9351 24.139 60.8556 23.8821 60.8654 23.7009C60.8799 23.4343 60.9039 23.1681 60.9252 22.9019C60.9283 22.8625 60.9247 22.8062 60.9481 22.7874C61.3194 22.4887 61.1332 22.0768 61.1631 21.7131C61.187 21.4222 61.1595 21.1273 61.1707 20.8348C61.1758 20.6999 61.1825 20.5428 61.2515 20.4368C61.4392 20.1487 61.4366 19.8412 61.4123 19.5235C61.4115 19.5134 61.4069 19.5 61.4116 19.4937C61.6248 19.2056 61.5802 18.8077 61.8247 18.5298C61.8729 18.475 61.881 18.3791 61.8936 18.2999C61.9304 18.0692 61.8063 17.8009 62.1163 17.6373C62.1942 17.5961 62.1405 17.3498 62.2006 17.223C62.3915 16.8196 62.469 16.3599 62.6689 15.9866C62.8446 15.6585 62.7123 15.1695 63.1579 14.985C63.1652 14.6108 63.5569 14.5612 63.7272 14.3208C63.8033 14.2135 64.3337 14.3044 64.4451 14.4031C64.4908 14.4436 64.5536 14.4679 64.6122 14.4903C64.8615 14.5855 65.128 14.9384 65.1075 15.2031C65.0572 15.853 64.9856 16.5011 64.9274 17.1504C64.9017 17.4375 64.8913 17.7261 64.8667 18.0133C64.8577 18.1192 64.8624 18.2539 64.8014 18.3229C64.5424 18.616 64.6104 18.9647 64.6334 19.2902C64.6594 19.6594 64.4914 19.9804 64.4533 20.3226C64.3968 20.8294 64.4472 21.3475 64.442 21.8607C64.4388 22.1839 64.4357 22.5023 64.2326 22.7941C64.1681 22.8867 64.2076 23.0884 64.2588 23.2166C64.349 23.4422 64.5703 23.6525 64.2129 23.845C64.1893 23.8578 64.196 24.0128 64.2309 24.0349C64.6165 24.2785 64.3981 24.6564 64.4315 24.9669C64.4754 25.3757 64.3239 25.8484 64.4822 26.1886C64.6142 26.4723 64.5669 26.7291 64.6383 26.9881C64.6645 26.9755 64.6907 26.9629 64.7169 26.9503C64.7876 27.0858 64.8465 27.2294 64.9325 27.3545C65.0155 27.4752 65.1176 27.5868 65.2283 27.683C65.298 27.7437 65.4365 27.7458 65.478 27.8142C65.5762 27.976 65.7002 28.008 65.8723 27.9958C65.9408 27.991 66.014 28.0523 66.1066 28.093C66.144 28.0704 66.2178 27.9876 66.275 27.9978C66.5878 28.0535 66.7926 27.9181 66.9684 27.6779C67.0389 27.5815 67.1567 27.5196 67.2937 27.4093C67.2937 27.3344 67.2937 27.1946 67.2937 27.1114C67.4789 26.9399 67.6468 26.8161 67.774 26.6594C67.9587 26.4317 68.2002 26.256 68.2845 25.9336C68.3334 25.7463 68.5562 25.6044 68.7452 25.3922C68.7259 25.1462 68.8399 24.8959 69.1691 24.7752C69.1965 24.7652 69.2311 24.7261 69.2319 24.6997C69.2411 24.3915 69.6005 24.2799 69.6442 24.0435C69.6998 23.7424 69.9203 23.5666 70.0283 23.3148C70.1207 23.0997 70.2523 22.9013 70.3665 22.6955C70.395 22.7096 70.4234 22.7236 70.4519 22.7377C70.4519 22.6186 70.4519 22.4995 70.4519 22.3604C70.5505 22.3604 70.6364 22.3604 70.7682 22.3604C70.8451 21.7972 70.9184 21.2486 70.9971 20.7008C71.0048 20.647 71.0394 20.5935 71.0726 20.548C71.1079 20.4997 71.1778 20.4684 71.1955 20.417C71.2771 20.1796 71.3732 19.942 71.4115 19.6963C71.451 19.4423 71.4094 19.2048 71.6281 18.9691C71.7484 18.8395 71.6496 18.5069 71.6496 18.2245C72.0065 18.308 71.9556 18.0804 71.9721 17.871C71.9845 17.7133 71.8399 17.4866 72.1263 17.4058C72.1507 17.3989 72.1488 17.2763 72.148 17.2076C72.1454 16.996 72.1657 16.8024 72.3991 16.7042C72.4316 16.6905 72.4562 16.6025 72.4476 16.5557C72.3721 16.1451 72.6252 15.8681 72.8339 15.5709C72.8768 15.5097 72.9384 15.4309 72.9295 15.3691C72.8838 15.0511 73.0429 14.982 73.3143 15.0146C73.4139 15.0265 73.5162 15.0165 73.6041 15.0165C73.595 14.8916 73.5325 14.7198 73.5891 14.6593C73.6831 14.5589 73.8491 14.5128 73.993 14.4754C74.1511 14.4344 74.3328 14.5357 74.4674 14.3287C74.5132 14.2583 74.7303 14.2951 74.8694 14.2905C75.0203 14.2855 75.1714 14.2893 75.2386 14.2893C75.3858 14.1556 75.4659 14.0327 75.5752 13.9952C75.733 13.9411 75.8273 14.0438 75.9213 14.1934C76.0014 14.3208 76.1893 14.4569 76.3279 14.4553C76.6346 14.4517 76.6618 14.6009 76.6374 14.8315C76.6322 14.8807 76.6366 14.931 76.6366 15.0126C76.8714 14.9818 76.9776 15.0742 76.9472 15.316C76.9402 15.371 77.0328 15.4847 77.0902 15.4924C77.2377 15.5122 77.2899 15.5985 77.3899 15.6936C77.7636 16.0487 77.6923 16.4926 77.5789 16.8477C77.4768 17.167 77.448 17.4684 77.4176 17.7873C77.4039 17.9312 77.4323 18.1429 77.1881 18.1781C77.1602 18.1821 77.1282 18.2655 77.1253 18.3138C77.1168 18.4547 77.0976 18.6017 77.1268 18.7368C77.1994 19.0734 76.9106 19.2911 76.865 19.5885C76.8567 19.6433 76.7316 19.6802 76.6414 19.7375C76.6478 19.7214 76.6406 19.7309 76.6408 19.7402C76.6467 20.0368 76.5602 20.3065 76.4795 20.5921C76.3632 21.0038 76.4194 21.4632 76.3891 21.9013C76.3841 21.9736 76.2985 22.0371 76.2762 22.1124C76.2484 22.2062 76.2328 22.3088 76.2385 22.4061C76.2466 22.5467 76.2787 22.6858 76.263 22.8334C76.4083 23.1318 76.3436 23.4433 76.295 23.7539C76.2834 23.8278 76.2576 23.9079 76.2746 23.9762C76.33 24.1993 76.2603 24.4012 76.2273 24.6176C76.1715 24.9832 76.1329 25.3851 76.2331 25.7293C76.3057 25.9786 76.2019 26.1777 76.2367 26.3974C76.2685 26.5986 76.3106 26.8017 76.309 27.0036C76.3078 27.162 76.2301 27.3187 76.2197 27.4783C76.2148 27.5542 76.2947 27.6326 76.3233 27.7143C76.3546 27.8039 76.3908 27.8985 76.3912 27.9911C76.3961 28.9609 76.3898 29.9308 76.4008 30.9005C76.402 31.0049 76.4876 31.1114 76.5437 31.2114C76.6119 31.3329 76.6894 31.4291 76.5518 31.5751C76.4625 31.67 76.4015 31.8311 76.4003 31.9631C76.3894 33.2348 76.4346 34.5086 76.3761 35.7777C76.3487 36.372 76.471 36.9605 76.3869 37.5464C76.3259 37.971 76.4746 38.4187 76.229 38.8284C76.1871 38.8983 76.3533 39.076 76.3232 39.1727C76.2187 39.5081 76.4791 39.878 76.2147 40.1904C76.2046 40.2023 76.2072 40.2317 76.2134 40.2496C76.3853 40.7486 76.1075 41.2465 76.2102 41.7463C76.2371 41.8772 76.2377 42.0135 76.2574 42.2223C76.2307 42.3941 76.1723 42.6473 76.1565 42.9032C76.1367 43.2252 76.1645 43.5503 76.1443 43.8723C76.1379 43.975 76.0401 44.0704 75.9913 44.1725C75.9575 44.2432 75.9138 44.3193 75.9127 44.3936C75.9056 44.8679 75.9163 45.3425 75.9034 45.8166C75.9006 45.9186 75.825 46.0184 75.7839 46.1196C75.7638 46.1691 75.7378 46.2181 75.7285 46.2698C75.6669 46.6123 75.6016 46.9544 75.5551 47.299C75.5423 47.3937 75.6406 47.5307 75.6009 47.59C75.3525 47.9607 75.5823 48.4723 75.3916 48.7492C75.0311 49.2724 75.3166 49.8288 75.1202 50.3302C75.037 50.5428 74.9583 50.7571 74.858 51.0223C74.8562 51.0225 74.7827 51.0328 74.6352 51.0534C74.6352 51.5833 74.6381 52.1094 74.6321 52.6354C74.6312 52.7182 74.6163 52.8321 74.5623 52.8777C74.3278 53.0756 74.2791 53.3512 74.2088 53.6214C74.1917 53.6871 74.1816 53.7886 74.1386 53.8081C73.7702 53.9751 73.9231 54.3004 73.9105 54.5625C73.8917 54.9521 73.767 55.2934 73.5442 55.6063C73.4656 55.7167 73.3909 55.8299 73.2705 56.0061C73.2373 56.2289 73.2603 56.5757 73.1246 56.8416C72.9943 57.0973 72.9722 57.5096 72.5245 57.5171C72.7533 57.7541 72.7383 58.0745 72.5545 58.3117C72.4281 58.4748 72.3817 58.6986 72.2607 58.8676C72.0585 59.1498 71.9156 59.4294 71.9487 59.7975C71.9568 59.8885 71.7725 60.0546 71.6507 60.0861C71.4545 60.1367 71.4705 60.285 71.4226 60.4062C71.3729 60.5316 71.3564 60.6716 71.2966 60.7909C71.2393 60.9051 71.1452 61.0008 71.0673 61.1046C71.0433 61.0919 71.0194 61.0793 70.9955 61.0666C70.9955 61.1467 70.9896 61.2273 70.9966 61.3068C71.0152 61.5183 70.9262 61.6408 70.7722 61.8039C70.5412 62.0487 70.3784 62.3621 70.1002 62.5761C70.0784 62.5929 70.0996 62.6573 70.0834 62.6913C70.0178 62.8288 69.9453 62.963 69.8371 63.0804C69.7589 63.6569 69.5072 63.9087 68.8741 63.9595C68.9511 64.3826 68.674 64.5699 68.3565 64.7517C68.2763 64.7976 68.1991 64.9978 68.2351 65.0707C68.3588 65.3212 68.1599 65.4158 68.0316 65.4356C67.7529 65.4785 67.6444 65.6423 67.5257 65.8653C67.4438 66.0192 67.2608 66.1194 67.1229 66.2436C67.1024 66.2277 67.0819 66.2118 67.0614 66.1959C67.0553 66.285 67.0401 66.3746 67.0452 66.4631C67.0544 66.6244 66.9841 66.6627 66.8287 66.6667C66.6166 66.6721 66.3678 66.5788 66.2354 66.8828C66.2007 66.9625 65.9903 66.9659 65.8626 67.0037C65.788 67.6556 65.788 67.6556 64.9469 67.7125C65.0046 68.0206 64.9048 68.1474 64.5856 68.1868C64.522 68.1946 64.4172 68.2233 64.4079 68.2612C64.3035 68.6853 63.9313 68.5876 63.6481 68.6732C63.4058 68.7464 63.1712 68.8479 62.9385 68.949C62.849 68.9879 62.7756 69.0626 62.6921 69.1168C62.5862 69.1857 62.4816 69.2588 62.3685 69.3138C62.2841 69.3549 62.1834 69.3615 62.097 69.3994C62.025 69.4311 61.9511 69.4752 61.8995 69.533C61.8219 69.62 61.7807 69.768 61.6897 69.8044C61.6319 69.8275 61.5119 69.6953 61.4236 69.6352C61.1273 70.0424 60.6497 69.8193 60.2402 69.8939C60.1449 70.1254 59.5043 70.2591 59.0242 70.1405C58.8651 70.4227 58.7108 70.7052 58.2965 70.6137C58.1519 70.5817 57.9943 70.6078 57.8427 70.6095C57.7009 70.6112 57.5831 70.6028 57.4603 70.7463C57.2843 70.9521 57.0223 70.8427 56.8414 70.7269C56.5979 70.5711 56.4271 70.559 56.2546 70.7768C56.2292 70.809 56.189 70.8348 56.1504 70.8503C55.962 70.9258 55.7752 71.0461 55.5817 71.0589C55.2164 71.083 54.8463 71.0544 54.4797 71.027C54.3199 71.0151 54.1655 70.9388 54.0053 70.9197C53.9508 70.9132 53.8889 71.0202 53.8254 71.0269C53.6746 71.0428 53.4979 71.0765 53.3741 71.0161C53.2237 70.9429 53.1249 70.817 52.9957 71.0349C52.9744 71.0709 52.8566 71.07 52.7905 71.055C52.6213 71.0167 52.459 70.944 52.2888 70.9153C51.9108 70.8518 51.6327 70.568 51.542 70.047C51.3794 70.1443 51.2428 70.2191 51.1138 70.3052C50.9855 70.3908 50.4241 70.4118 50.2034 70.2382C50.1489 70.1953 50.0572 70.201 49.9837 70.1803C49.7511 70.1147 49.5051 70.0746 49.2932 69.9676C49.2001 69.9206 49.1767 69.7357 49.1101 69.5877C48.8933 69.5021 48.5526 69.7295 48.3675 69.3976C48.2466 69.1809 48.1424 68.9548 48.0484 68.7679C47.9488 69.0396 47.6223 68.9546 47.4025 68.8866C47.225 68.8318 47.1094 68.5771 46.921 68.3584C46.9158 68.3584 46.8294 68.3584 46.734 68.3584C46.734 68.1969 46.734 68.0574 46.734 67.8984C46.6466 67.892 46.5696 67.8817 46.4925 67.8813C45.9707 67.8782 45.8381 67.7584 45.6875 67.2507C45.6536 67.1363 45.4986 67.0435 45.3806 66.9714C45.158 66.8352 45.0536 66.4818 45.2021 66.2622C45.0258 66.2351 44.8532 66.2168 44.6852 66.1786C44.6236 66.1646 44.5467 66.1156 44.5218 66.0618C44.438 65.8801 44.4021 65.671 44.295 65.5068C44.1904 65.3465 44.0209 65.2284 43.8211 65.0349C43.8197 64.876 43.727 64.6639 43.6015 64.4244C43.4551 64.1449 43.3356 63.8865 43.1127 63.6412C42.9126 63.4212 42.8538 63.0729 42.7194 62.7491C42.4269 62.7053 42.5395 62.3998 42.4916 62.1996C42.4257 61.9246 42.367 61.6673 42.1284 61.4778C42.0698 61.4313 42.0669 61.2992 42.0612 61.2051C42.0482 60.9917 42.1252 60.7638 41.9064 60.5942C41.8631 60.5606 41.8792 60.4434 41.8775 60.3645C41.871 60.0572 41.9151 59.7468 41.8172 59.4453C41.808 59.4172 41.8143 59.3663 41.7996 59.3604C41.4382 59.2158 41.5821 58.9013 41.5793 58.6562C41.5665 57.5047 41.5736 56.3529 41.5736 55.1807C41.6506 55.1618 41.7299 55.1424 41.7797 55.1302C41.8247 54.5311 41.868 53.954 41.9113 53.3768C41.9195 53.3792 41.9277 53.3816 41.9359 53.3839C41.9312 53.301 41.8897 53.1908 41.9278 53.1395C42.1733 52.8083 42.3898 52.4736 42.3119 52.1266C42.5769 51.8754 42.7921 51.6714 43.0292 51.4466C43.0292 51.3983 43.0027 51.3053 43.0344 51.2406C43.1142 51.0772 43.0702 50.9014 43.2444 50.7264C43.5341 50.4355 43.6948 50.0163 43.9098 49.6512C43.8855 49.6324 43.8612 49.6137 43.8369 49.5949C43.9868 49.5578 44.1368 49.5207 44.291 49.4825C44.2726 49.056 44.5168 48.873 44.9034 48.7698C45.0279 48.7366 45.1855 48.5508 45.1968 48.4232C45.2297 48.0524 45.6347 48.0559 45.7634 47.7891C45.8308 47.6493 45.9675 47.5429 46.073 47.4214C46.0496 47.3934 46.0261 47.3653 46.0027 47.3373C46.1968 47.3142 46.4535 47.3598 46.571 47.2528C46.7715 47.0704 47.0966 47.135 47.2306 46.8697C47.2435 46.8439 47.2777 46.8025 47.2892 46.8064C47.581 46.9045 47.7698 46.6364 47.9032 46.5163C48.1454 46.2981 48.3807 46.4049 48.6142 46.3568C48.677 46.3438 48.7519 46.314 48.7893 46.2667C48.9181 46.1038 49.0705 46.0281 49.2829 46.0488C49.3381 46.0541 49.4021 45.9752 49.4611 45.9336C49.4985 45.9072 49.5385 45.85 49.5697 45.8549C50.0194 45.9254 50.3429 45.4854 50.8022 45.5595C50.9309 45.5803 51.0825 45.4684 51.2214 45.4119C51.2562 45.3977 51.279 45.3461 51.3131 45.339C51.654 45.2682 51.996 45.2031 52.3378 45.1364C52.3248 45.1083 52.3118 45.0802 52.2988 45.0521C52.4271 44.9825 52.5485 44.8889 52.6855 44.8505C52.8074 44.8163 52.9489 44.8596 53.0773 44.84C53.405 44.79 53.3875 45.1418 53.5617 45.2735C53.6245 45.321 53.5304 45.6519 53.4377 45.8132C53.2202 46.1916 52.8535 46.4109 52.4758 46.6132C52.4106 46.6481 52.415 46.7962 52.3546 46.8622C52.3108 46.91 52.213 46.9084 52.1431 46.9277C52.1303 47.0452 52.1592 47.1922 52.0994 47.2551C51.8952 47.4701 51.6599 47.6555 51.4109 47.8747C51.4977 48.4026 50.9458 48.5295 50.752 48.9005C50.6656 49.0569 50.5154 49.2092 50.5052 49.3704C50.4788 49.789 50.2999 50.0647 49.9295 50.252C49.8508 50.2917 49.8486 50.4625 49.7805 50.5485C49.7056 50.643 49.5953 50.7092 49.4708 50.8122C49.4865 51.1067 49.2561 51.2915 49.043 51.5293C48.7821 51.8203 48.4927 52.0911 48.2621 52.4076C48.1945 52.5004 48.216 52.6551 48.1867 52.779C48.1271 53.0314 48.061 53.2822 47.9962 53.5333C47.9915 53.5514 47.9783 53.5779 47.9643 53.5815C47.5826 53.679 47.7565 53.9609 47.7617 54.1866C47.7622 54.2068 47.7692 54.2311 47.7606 54.2466C47.618 54.5018 47.4735 54.756 47.327 55.0145C47.3404 55.0332 47.3898 55.071 47.3942 55.1135C47.439 55.5457 47.4922 55.978 47.5118 56.4117C47.5322 56.8636 47.5093 57.3175 47.5252 57.7698C47.5293 57.8847 47.6176 57.9943 47.6515 58.111C47.6872 58.234 47.6996 58.3637 47.7305 58.4884C47.7588 58.6027 47.7779 58.798 47.8363 58.8121C48.0472 58.8632 47.9853 59.007 48.009 59.1358C48.0275 59.2364 48.0881 59.329 48.1279 59.4261C48.1496 59.4791 48.2001 59.5572 48.1811 59.584C48.0314 59.7949 48.2386 59.8264 48.3266 59.9398C48.4853 60.1443 48.6023 60.3817 48.7304 60.6089C48.8405 60.8043 48.9417 61.0047 49.0469 61.203C49.0261 61.2217 49.0052 61.2404 48.9843 61.2591C49.0585 61.2694 49.1326 61.2797 49.2068 61.29C49.186 61.3063 49.1652 61.3225 49.1445 61.3388C49.2286 61.4954 49.295 61.6654 49.401 61.8054C49.5759 62.0364 49.7365 62.3409 49.9765 62.4439C50.2675 62.569 50.1504 62.7555 50.1959 62.9311C50.4708 63.0437 50.7867 63.1125 51.0227 63.2883C51.2187 63.4343 51.3208 63.7062 51.4645 63.9223C51.4412 63.9594 51.4179 63.9964 51.3946 64.0335C51.6955 64.0834 51.9987 64.1232 52.2957 64.1905C52.3674 64.2068 52.4186 64.3139 52.5218 64.4252C52.7942 64.4252 53.1366 64.4252 53.479 64.4252C53.4993 64.4252 53.5241 64.4324 53.539 64.4234C54.3016 63.9639 55.1423 64.284 55.94 64.1796C56.0812 64.1611 56.2871 64.2889 56.3454 64.0238C56.3501 64.0025 56.4745 64.0045 56.5435 64.0007C56.9228 63.98 57.3045 63.927 57.6809 63.9519C57.9888 63.9722 58.0318 63.6954 58.2171 63.5894C58.3489 63.514 58.487 63.4217 58.6312 63.4021C58.8808 63.3683 59.1403 63.4357 59.3642 63.239C59.4293 63.1818 59.5776 63.2216 59.6874 63.2124C59.8862 63.1957 60.137 63.3106 60.2222 62.9946C60.23 62.9658 60.3482 62.9666 60.3717 62.9621C60.3415 62.8715 60.3097 62.776 60.278 62.6805C60.4018 62.666 60.5257 62.6515 60.6495 62.637C60.6487 62.6535 60.6478 62.6701 60.647 62.6866C60.9308 62.5229 61.2537 62.4011 61.4877 62.1837C61.7256 61.9626 62.1216 62.1025 62.2823 61.773C62.3045 61.7275 62.3804 61.6866 62.375 61.6527C62.3145 61.277 62.516 61.2145 62.8393 61.2932C62.8913 61.0326 62.9729 60.851 63.2623 60.7647C63.4253 60.716 63.523 60.4427 63.6453 60.2673C63.6877 60.2065 63.7215 60.0758 63.7492 60.0785C64.1452 60.1179 64.095 59.8458 64.0683 59.5874C64.1785 59.579 64.265 59.5725 64.3639 59.565C64.3556 59.0382 64.6709 58.6874 65.0242 58.2488C65.1125 57.9778 65.2253 57.6067 65.3599 57.2437C65.3828 57.182 65.4998 57.1553 65.5819 57.1075C65.6095 56.7848 65.8391 56.4121 66.0738 56.3351C66.1094 56.0943 65.9912 55.7988 66.2896 55.6353C66.304 55.6275 66.3138 55.6037 66.3178 55.5856C66.4014 55.2086 66.4171 54.7971 66.5879 54.4651C66.7224 54.2036 66.7687 53.8731 67.0662 53.6794C67.2605 53.5529 67.3376 53.3132 67.3056 53.0462C67.2911 52.926 67.395 52.7915 67.5123 52.6816C67.5406 52.4967 67.5068 52.2603 67.6092 52.1367C67.8962 51.79 67.7313 51.4048 67.7791 51.0406C67.7817 51.0207 67.7718 50.9885 67.7815 50.9818C68.0247 50.8122 67.9587 50.5077 68.0758 50.302C68.2616 49.9755 68.2645 49.6314 68.3244 49.2898C68.3561 49.1098 68.2323 48.8847 68.4862 48.7684C68.5106 48.7572 68.507 48.6746 68.508 48.625C68.5104 48.5039 68.5278 48.3785 68.5037 48.2622C68.4246 47.8801 68.5825 47.5533 68.8284 47.3199C68.993 47.1637 68.9888 47.0265 68.9918 46.8561C68.9959 46.6238 68.981 46.3903 69.0011 46.1597C69.0094 46.0638 69.0913 45.9756 69.1309 45.8803C69.1513 45.8314 69.1729 45.7679 69.1584 45.7223C69.1149 45.5862 69.0538 45.4557 68.9891 45.2972C69.3026 45.1698 69.2358 44.8872 69.2356 44.6266C69.235 43.8488 69.2357 43.071 69.2351 42.2932C69.2348 41.9375 69.2965 41.6061 69.4257 41.2629C69.537 40.967 69.4685 40.6065 69.4983 40.2763C69.5228 40.0058 69.5749 39.7379 69.6189 39.4413C69.5209 39.3811 69.4562 38.936 69.5615 38.7217C69.6315 38.5793 69.6645 38.4191 69.7221 38.2701C69.7638 38.1622 69.8189 38.0596 69.8421 38.0099C69.7963 37.8259 69.7357 37.6753 69.7256 37.5213C69.7078 37.2497 69.7244 36.9761 69.7196 36.7034C69.7167 36.5384 69.7736 36.4283 69.8818 36.2883C70.002 36.1329 70.0115 35.8709 70.0189 35.6536C70.0364 35.139 70.0185 34.6232 70.0299 34.1083C70.0317 34.0271 70.121 33.9511 70.1532 33.8664C70.1827 33.7887 70.204 33.7025 70.2045 33.6199C70.2084 32.9935 70.198 32.3669 70.213 31.7409C70.2159 31.6205 70.3113 31.5023 70.4024 31.3954C70.4455 30.9785 70.4052 30.9499 69.8639 30.9662C69.7749 31.1449 69.679 31.2995 69.6193 31.4669C69.5465 31.6713 69.3867 31.6567 69.2212 31.7002C69.0522 31.7445 68.8796 31.8537 68.758 31.9815C68.5678 32.1816 68.5854 32.1984 68.3481 32.1477C68.2273 32.3189 68.1418 32.5759 67.9872 32.6278C67.7429 32.7099 67.4516 32.6656 67.1817 32.6493C67.1184 32.6455 67.0644 32.495 67.0006 32.4905C66.8775 32.4818 66.7282 32.4952 66.6296 32.5601C66.3841 32.7217 65.7764 32.699 65.5688 32.4962C65.5461 32.4741 65.4946 32.4814 65.4355 32.4613Z" fill="#36AFC4"/>
<path d="M15.1217 37.6807C15.0614 37.8061 15.0045 37.9054 14.9255 38.0432C14.8837 38.06 14.7871 38.099 14.7345 38.1202C14.7211 38.4061 14.7542 38.6701 14.6813 38.9008C14.6358 39.0449 14.4471 39.1763 14.2923 39.2451C14.1155 39.3236 13.9863 39.3845 13.9622 39.6038C13.9525 39.6921 13.845 39.8114 13.7562 39.8418C13.4464 39.9477 13.1254 40.021 12.7761 40.1155C12.7809 40.1439 12.7957 40.2315 12.8149 40.3457C12.7398 40.3215 12.6807 40.3025 12.6728 40.3C12.5424 40.4642 12.4402 40.6331 12.296 40.7509C12.2507 40.788 12.0928 40.6881 11.9227 40.6286C11.9075 40.6375 11.8193 40.6966 11.7247 40.7423C11.5368 40.833 11.3886 40.736 11.3034 40.5484C11.2214 40.3677 11.0792 40.2141 10.9569 40.0391C10.7547 40.0391 10.5415 40.0564 10.3329 40.0331C10.1912 40.0172 10.0588 39.9195 9.91699 39.9029C9.71623 39.8794 9.51064 39.897 9.28884 39.9414C9.00259 39.6086 8.82184 39.1951 8.82274 38.7195C8.3421 38.4007 8.54818 37.9067 8.55306 37.494C8.55529 37.3048 8.43517 36.9563 8.80672 36.8733C8.52456 36.6688 8.4918 36.0858 8.7497 35.8617C8.77227 35.8421 8.80733 35.8245 8.81343 35.8002C8.8835 35.5213 8.95598 35.2427 9.01363 34.9611C9.05755 34.7466 9.00446 34.4887 9.31636 34.405C9.31636 34.0964 9.31822 33.7855 9.31583 33.4747C9.3135 33.171 9.28806 32.8745 9.51903 32.611C9.59596 32.5232 9.55753 32.3274 9.55706 32.1811C9.55603 31.8594 9.54206 31.5378 9.54031 31.2162C9.53929 31.0276 9.55581 30.8389 9.55707 30.6503C9.55988 30.2292 9.56178 29.808 9.5553 29.3869C9.55385 29.2924 9.51512 29.1986 9.49614 29.1039C9.47515 28.9993 9.41618 28.8812 9.44464 28.7912C9.59772 28.3075 9.54202 27.8246 9.50716 27.3328C9.47999 26.9493 9.54309 26.56 9.55626 26.173C9.56546 25.9027 9.55138 25.6316 9.55957 25.3613C9.57462 24.8647 9.59573 24.3682 9.62033 23.872C9.62713 23.735 9.613 23.6196 9.75229 23.4829C9.85224 23.3849 9.75428 23.0819 9.73666 22.871C9.7305 22.7972 9.67681 22.7223 9.6859 22.6533C9.71601 22.4247 9.80011 22.1986 9.80096 21.9714C9.80842 19.9718 9.80046 17.9721 9.80615 15.9725C9.80642 15.879 9.89579 15.7872 9.93789 15.6921C9.97677 15.6043 10.037 15.5133 10.0379 15.4233C10.0459 14.5593 10.0384 13.6951 10.0471 12.8312C10.0495 12.586 10.0905 12.3411 10.116 12.0737C9.92992 12.0737 9.76407 12.0737 9.57316 12.0737C9.59757 12.3885 9.3468 12.2748 9.20234 12.3628C9.0948 12.4213 8.98776 12.4807 8.87956 12.5379C8.78681 12.587 8.69506 12.6391 8.59866 12.68C8.47713 12.7315 8.35132 12.773 8.24973 12.8539C8.10312 12.9296 7.96133 13.018 7.80792 13.0758C7.72854 13.1056 7.62847 13.0785 7.53791 13.0816C7.35881 13.0877 7.16954 13.0318 7.05632 13.2607C6.95741 13.4607 6.76817 13.5162 6.53807 13.5161C6.43739 13.516 6.26459 13.6439 6.24977 13.7341C6.20916 13.9813 6.07044 14.0067 5.87546 13.9857C5.86549 13.9847 5.85506 13.987 5.84528 13.9853C5.52328 13.9284 5.29901 14.0344 5.11624 14.3224C5.00169 14.5029 4.78757 14.6202 4.62007 14.768C4.58896 14.7955 4.55929 14.8299 4.5423 14.8671C4.39739 15.1848 4.39831 15.1852 4.09149 15.1985C3.94715 15.4681 3.84911 15.7344 3.67951 15.9428C3.53151 16.1246 3.28384 16.2025 3.10499 16.3852C2.96424 16.529 2.6913 16.5102 2.70453 16.839C2.70894 16.9485 2.46105 17.0501 2.38179 17.1862C2.30083 17.3252 2.26267 17.4999 2.24707 17.663C2.22896 17.8524 2.14482 17.9594 2.03035 18.1119C1.86803 18.328 1.61102 18.3284 1.47078 18.5182C1.44368 18.5549 1.35153 18.5822 1.3112 18.5645C1.03553 18.4433 0.687379 18.4732 0.495091 18.174C0.430707 18.0738 0.349543 17.9832 0.26851 17.8951C-0.101388 17.4929 -0.0198103 16.954 0.105396 16.568C0.2756 16.0432 0.268631 15.4229 0.741272 14.9937C0.887619 14.8608 0.946173 14.5845 0.96261 14.3676C0.98706 14.045 1.30042 13.968 1.41232 13.7385C1.51356 13.5309 1.73811 13.435 1.79035 13.1532C1.83296 12.9235 2.1441 12.7495 2.31851 12.5364C2.57039 12.2287 2.8063 11.9079 3.02222 11.574C3.1032 11.4937 3.19929 11.4237 3.26236 11.3313C3.46713 11.0311 3.95381 11.0298 4.03304 10.6013C4.37433 10.4975 4.40455 9.98983 4.84268 9.99044C4.93444 9.99057 5.0264 9.84321 5.14815 9.79638C5.18888 9.61434 5.25315 9.49192 5.50503 9.51099C5.6164 9.51943 5.8031 9.41649 5.84262 9.31868C5.94387 9.06814 6.16081 9.01461 6.3586 8.91144C6.396 8.89193 6.3981 8.81255 6.42712 8.76764C6.46173 8.71407 6.51269 8.62171 6.54814 8.62545C7.00142 8.67338 7.19565 8.20017 7.58659 8.11582C7.6662 8.09864 7.70347 7.92445 7.77773 7.83748C8.0377 7.53303 8.48575 7.52656 8.75633 7.19637C8.89214 7.03064 9.21427 7.02222 9.44581 6.92728C9.59646 6.86551 9.73056 6.76324 9.8816 6.70283C10.0141 6.64986 10.1598 6.62994 10.3188 6.5907C10.4317 6.39451 10.5576 6.17662 10.8731 6.20255C11.0555 6.21755 11.2023 6.17097 11.3167 5.99075C11.3814 5.88875 11.5437 5.84213 11.6689 5.78574C12.0185 5.6283 12.3506 5.43628 12.7548 5.41207C13.0207 5.39614 13.2153 5.18126 13.44 5.04904C13.7133 4.88825 14.0352 4.80693 14.3405 4.70469C14.4208 4.67781 14.5178 4.70064 14.5205 4.70064C14.6595 4.5029 14.7388 4.33107 14.8716 4.22714C14.9334 4.17874 15.0988 4.262 15.2357 4.28926C16.0477 4.01879 16.9158 3.72966 17.813 3.43083C17.9469 2.91933 18.4107 3.02059 18.7614 3.00915C19.2919 2.32765 20.0558 2.19998 20.7951 1.90322C20.7957 1.89019 20.7753 1.79126 20.8108 1.72014C20.8535 1.63465 20.9617 1.50038 21.0106 1.51239C21.3496 1.59564 21.5393 1.33414 21.7883 1.21298C21.8899 1.16357 22.0063 1.13681 22.0956 1.07189C22.2373 0.968844 22.5104 1.10806 22.5508 0.82423C22.5525 0.812506 22.5832 0.799943 22.602 0.796336C22.9528 0.729 23.3039 0.66297 23.6786 0.592196C23.6953 0.322396 23.8629 0.255362 24.1148 0.291252C24.253 0.310937 24.3965 0.297266 24.5374 0.293979C24.7064 0.290044 24.851 0.304595 25.0045 0.142986C25.2375 -0.102402 25.9348 -0.00120859 26.2159 0.215291C26.3228 0.297616 26.5127 0.281177 26.6661 0.292551C26.8161 0.303675 26.9638 0.266298 26.9805 0.505237C26.9871 0.600077 27.1333 0.768898 27.202 0.762195C27.6619 0.717394 27.7939 1.17681 28.1213 1.32595C28.1718 1.34894 28.2236 1.42635 28.2285 1.48261C28.2781 2.05114 28.3363 2.6201 28.3494 3.18991C28.3533 3.35894 28.2287 3.53378 28.1523 3.70109C28.0432 3.93996 27.9243 4.17436 27.7901 4.45081C27.7277 4.46653 27.5976 4.49932 27.4578 4.53452C27.4578 4.66106 27.4578 4.77986 27.4578 4.89865C27.4313 4.8837 27.4048 4.86875 27.3782 4.8538C27.2419 5.03766 27.1094 5.22447 26.9683 5.40459C26.8194 5.5947 26.6644 5.78016 26.5084 5.96458C26.2518 6.26791 25.8985 6.19715 25.5639 6.20911C25.4507 6.21316 25.3389 6.25552 25.2105 6.2839C25.2938 6.6603 25.0687 6.79394 24.7829 6.94158C24.4214 7.12831 24.1102 7.4106 23.7524 7.6065C23.6109 7.68396 23.5102 7.73864 23.4804 7.8999C23.4759 7.92476 23.3971 7.9513 23.3528 7.95097C23.1436 7.94939 22.9291 7.92001 22.8336 8.18247C22.8255 8.20472 22.7208 8.20362 22.6642 8.19419C22.56 8.17683 22.4583 8.14519 22.3138 8.1091C22.3949 8.55247 22.1521 8.63593 21.7981 8.6972C21.5976 8.73191 21.327 8.78267 21.209 9.046C21.1962 9.07458 20.957 9.00225 20.945 8.99478C20.8342 9.04389 20.7249 9.09665 20.6123 9.14134C20.3879 9.23048 20.1064 9.25912 19.9485 9.41415C19.6748 9.68291 19.3305 9.55013 19.0653 9.66676C18.7623 9.79997 18.449 9.82944 18.1618 9.93529C17.9625 10.0088 17.7828 10.0579 17.5792 10.0618C17.5393 10.0626 17.4986 10.0629 17.4597 10.0559C17.434 10.0513 17.1678 9.97229 17.1657 9.97753C17.1183 10.0937 16.9158 10.0332 16.9172 10.2482C16.9184 10.4297 16.5964 10.416 16.4333 10.2212C16.2441 10.501 15.9748 10.5973 15.6436 10.616C15.3949 10.63 15.1142 10.4273 14.8976 10.6884C14.7563 10.8587 14.6191 10.8113 14.4733 10.7145C14.4088 10.6716 14.3518 10.6175 14.2979 10.6562C14.085 10.7206 13.8642 10.7673 13.6619 10.8559C13.5331 10.9123 13.4077 11.0139 13.3259 11.1275C13.2652 11.2119 13.2743 11.3485 13.4542 11.3405C13.4643 11.34 13.4843 11.3878 13.4866 11.4142C13.5454 12.0771 13.8948 12.6778 13.8135 13.3856C13.757 13.8773 13.823 14.4275 14.002 14.8865C14.1299 15.2149 14.1975 15.5516 14.3187 15.859C14.423 16.1236 14.4188 16.4154 14.5379 16.6318C14.722 16.9662 14.6557 17.2984 14.7151 17.6281C14.7305 17.7133 14.8571 17.7731 14.9089 17.8589C14.956 17.937 14.9903 18.0332 14.9962 18.1237C15.0098 18.3338 14.9148 18.6362 15.0212 18.7386C15.3161 19.0225 15.114 19.3397 15.1781 19.6299C15.1895 19.6814 15.1577 19.7425 15.1453 19.8017C15.477 20.0283 15.6558 21.0194 15.4806 21.7401C15.8526 21.7281 15.6902 22.0465 15.7673 22.2183C16.0041 22.7463 15.9907 23.3127 15.9598 23.8775C15.991 23.8695 16.0222 23.8615 16.0533 23.8535C16.1052 23.9914 16.2013 24.129 16.2021 24.2671C16.2123 26.0959 16.2177 27.9248 16.2021 29.7534C16.1989 30.13 16.2243 30.5055 16.2116 30.8821C16.1973 31.3037 16.2083 31.7261 16.2084 32.1482C16.2086 32.5603 16.2213 32.9729 16.2021 33.384C16.1959 33.5172 16.1064 33.6464 16.055 33.7775C16.0258 33.7673 15.9966 33.7572 15.9674 33.747C15.9674 34.1987 15.9788 34.6509 15.96 35.1018C15.9548 35.2272 15.856 35.3474 15.8076 35.4728C15.7739 35.5602 15.7413 35.6508 15.7289 35.7427C15.7138 35.8552 15.7449 35.978 15.7128 36.0833C15.6296 36.3565 15.5295 36.6253 15.4215 36.89C15.3844 36.9808 15.304 37.0541 15.2076 37.1054C15.18 37.2885 15.1525 37.4716 15.1217 37.6807Z" fill="#36AFC4"/>
<path d="M109.675 16.0901C109.808 16.0648 109.942 16.0394 110.023 16.0239C110.091 15.7759 110.101 15.5246 110.224 15.3574C110.328 15.2167 110.499 15.0355 110.754 15.1006C110.795 15.1111 110.869 15.027 110.916 14.9762C111.175 14.6979 111.578 14.757 111.693 15.1086C112 15.1086 112.314 15.1254 112.625 15.1034C112.885 15.0849 113.05 15.2195 113.094 15.4256C113.183 15.8424 113.467 16.0859 113.759 16.3475C113.836 16.4163 113.824 16.5983 113.829 16.7293C113.834 16.8661 113.777 17.012 113.807 17.1399C113.871 17.4127 113.857 17.6238 113.655 17.8621C113.548 17.9882 113.634 18.2664 113.603 18.4715C113.586 18.5869 113.509 18.6935 113.459 18.8041C113.428 18.7949 113.397 18.7858 113.366 18.7766C113.366 19.2099 113.39 19.6449 113.36 20.0761C113.33 20.5051 113.222 20.9289 113.194 21.3579C113.18 21.573 113.269 21.7941 113.303 22.0137C113.312 22.0693 113.308 22.1654 113.277 22.1827C112.925 22.3766 113.173 22.5497 113.299 22.7073C113.46 22.908 113.37 23.3608 113.106 23.4544C113.132 23.562 113.122 23.7125 113.192 23.7766C113.403 23.9702 113.366 24.2072 113.366 24.4428C113.367 24.9578 113.361 25.4729 113.368 25.9878C113.372 26.3005 113.277 26.6394 113.586 26.8851C113.625 26.9155 113.608 27.0157 113.627 27.1724C113.726 27.091 113.787 27.036 113.853 26.9871C113.912 26.9436 113.972 26.8973 114.038 26.869C114.185 26.8059 114.335 26.7456 114.488 26.6986C114.661 26.6454 114.837 26.5953 115.016 26.5672C115.224 26.5344 115.461 26.6367 115.626 26.4083C115.653 26.3712 115.758 26.3852 115.827 26.3848C116.191 26.3828 116.554 26.3839 116.953 26.3839C116.875 26.0638 117.073 26.0698 117.283 26.0786C117.475 26.0866 117.668 26.0815 117.86 26.0795C118.014 26.078 118.182 26.1206 118.257 25.9085C118.273 25.8653 118.393 25.8542 118.466 25.8377C118.6 25.808 118.782 25.8309 118.859 25.7506C119.026 25.5769 119.216 25.6123 119.411 25.59C119.767 25.5493 119.971 25.7824 119.976 26.148C119.98 26.4247 120.099 26.7447 119.764 26.9564C119.704 26.9943 119.741 27.1853 119.731 27.3296C119.648 27.3419 119.555 27.3557 119.437 27.3733C119.437 27.5603 119.45 27.7511 119.433 27.9392C119.422 28.0616 119.542 28.257 119.283 28.2839C119.268 28.2854 119.257 28.3924 119.256 28.4504C119.253 28.6726 119.222 28.9011 119.263 29.1156C119.342 29.5338 119.103 29.7958 118.865 30.0708C118.821 30.1213 118.764 30.1999 118.776 30.2523C118.858 30.6374 118.602 30.8129 118.34 30.9879C118.304 31.012 118.228 31.0335 118.23 31.0497C118.281 31.5163 117.894 31.6013 117.609 31.7825C117.499 31.852 117.414 31.9606 117.321 32.0549C117.234 32.144 117.151 32.2377 117.016 32.3825C117 32.6595 116.975 32.5503 116.579 32.6423C116.328 32.7009 116.065 32.6822 115.795 32.7748C115.795 32.8019 115.796 32.8384 115.795 32.8749C115.786 33.2589 115.575 33.4236 115.194 33.325C114.817 33.2273 114.499 33.2669 114.28 33.6331C114.245 33.692 114.17 33.7628 114.111 33.7659C113.839 33.7804 113.561 33.8021 113.295 33.7594C113.178 33.7405 113.087 33.4998 112.98 33.4968C112.878 33.4939 112.786 33.6993 112.664 33.7594C112.492 33.8433 112.354 33.7248 112.301 33.5006C111.803 33.428 111.387 33.2129 111.028 32.8734C110.968 32.8167 110.878 32.75 110.806 32.7539C110.456 32.7728 110.245 32.5885 110.082 32.3109C110.067 32.2843 110.021 32.2613 109.989 32.2605C109.761 32.2545 109.676 32.138 109.633 31.917C109.6 31.745 109.639 31.5437 109.435 31.3968C109.354 31.3385 109.422 31.0737 109.422 30.8812C109.329 30.8766 109.227 30.8994 109.158 30.8617C109.051 30.8034 108.877 30.69 108.887 30.6238C108.964 30.1285 108.607 29.8448 108.38 29.498C108.24 29.2852 108.073 29.0827 108.359 28.8476C108.407 28.8085 108.382 28.6819 108.391 28.5951C108.264 28.611 108.161 28.624 108.041 28.6389C107.994 28.8012 108.097 29.0266 107.761 29.091C107.611 29.1196 107.49 29.4905 107.429 29.7249C107.363 29.974 107.244 30.0685 107.001 30.0886C106.913 30.0959 106.754 30.2127 106.762 30.2536C106.82 30.5543 106.538 30.6642 106.403 30.7736C106.186 30.9507 105.861 30.9973 105.565 31.1052C105.543 31.5202 105.179 31.7394 104.528 31.7964C104.539 31.8223 104.551 31.8482 104.562 31.8741C104.444 31.9429 104.3 32.0934 104.214 32.0657C103.91 31.9685 103.61 32.3343 103.317 32.1144C103.196 32.2242 103.063 32.4198 102.882 32.4851C102.76 32.529 102.572 32.3884 102.392 32.3224C102.316 32.4917 102.167 32.6003 101.881 32.5396C101.618 32.4836 101.421 32.44 101.554 32.0832C101.325 32.1105 101.114 31.9776 100.967 32.2295C100.941 32.273 100.759 32.2765 100.689 32.2335C100.352 32.0265 100.032 31.7933 99.6996 31.5788C99.6224 31.5288 99.5194 31.4853 99.4316 31.491C99.1181 31.5114 99.0519 31.3449 99.1049 31.0618C98.7957 31.0627 98.4947 31.0522 98.6231 30.6291C98.3338 30.4649 98.259 30.1585 98.0868 29.9455C97.8493 29.6519 97.9495 29.3618 97.8718 29.0809C97.2488 28.8606 97.4241 28.3234 97.3957 27.8732C97.0955 27.7688 97.0098 27.4941 97.1594 27.1535C97.1758 27.1161 97.1685 27.0673 97.1677 27.0238C97.1669 26.984 97.1593 26.9444 97.1559 26.9045C97.1515 26.8523 97.5013 26.1234 97.5329 26.0739C97.5586 26.0335 97.5797 25.954 97.5581 25.9253C97.3436 25.6393 97.3285 24.9677 97.5313 24.6796C97.566 24.6302 97.5743 24.5566 97.579 24.493C97.5953 24.2722 97.5169 24.0196 97.8323 23.9173C97.8752 23.9034 97.8971 23.7311 97.8799 23.6416C97.7854 23.152 98.1539 22.7755 98.1931 22.3203C98.195 22.2981 98.2454 22.2748 98.2771 22.2614C98.7189 22.0744 98.8393 21.7181 98.7975 21.3283C98.9973 21.1411 99.1646 20.9763 99.3407 20.8215C99.6056 20.5888 99.6698 20.2467 99.8312 19.9577C99.9022 19.8305 99.9958 19.7125 100.095 19.6053C100.219 19.4719 100.382 19.3696 100.486 19.224C100.562 19.1164 100.609 18.9593 100.603 18.8273C100.59 18.5268 100.736 18.4605 101.013 18.5121C101.082 18.0328 101.416 17.7709 101.784 17.5226C101.893 17.4497 101.953 17.2909 102.009 17.1601C102.084 16.9847 102.154 16.829 102.377 16.7986C102.443 16.7897 102.53 16.7105 102.551 16.6452C102.63 16.4094 102.765 16.2738 103.054 16.324C102.985 16.0074 103.08 15.8537 103.398 15.7958C103.543 15.7694 103.641 15.5447 103.786 15.4514C103.996 15.3172 104.22 15.1735 104.457 15.1229C104.655 15.0805 104.79 15.0656 104.738 14.8002C105.104 14.883 105.251 14.5802 105.491 14.4543C105.746 14.3207 105.918 13.968 106.286 14.0793C106.526 14.1518 106.703 14.0168 106.846 13.8763C107.143 13.5864 107.502 13.5891 107.871 13.5952C108.094 13.599 108.316 13.596 108.539 13.5924C108.755 13.5888 108.928 13.6433 108.963 13.8972C109.065 13.8972 109.155 13.9007 109.245 13.8965C109.427 13.8881 109.501 13.974 109.55 14.1498C109.595 14.3113 109.685 14.4778 109.801 14.5987C110.041 14.8497 110.016 15.4506 109.764 15.6684C109.682 15.7388 109.695 15.9177 109.646 16.0639C109.352 16.068 109.077 16.0527 108.801 16.0444C108.745 16.0427 108.678 16.0523 108.633 16.082C108.234 16.344 107.839 16.6117 107.442 16.8778C107.48 17.1602 107.18 16.9708 107.098 17.1245C107.035 17.2426 106.888 17.3163 106.747 17.4371C106.747 17.5067 106.747 17.6267 106.747 17.7467C106.413 17.9313 106.121 18.1538 105.856 18.4049C105.723 18.5304 105.548 18.7111 105.553 18.8615C105.566 19.2542 105.247 19.3903 105.105 19.6014C105.098 19.7377 105.11 19.9261 105.084 19.9313C104.786 19.9921 104.822 20.2295 104.778 20.4357C104.761 20.5145 104.68 20.5794 104.628 20.651C104.526 20.7941 104.415 20.9323 104.323 21.0818C104.161 21.3436 104.063 21.6737 103.842 21.8609C103.625 22.0442 103.571 22.2138 103.591 22.457C103.597 22.5251 103.592 22.594 103.592 22.6672C103.478 22.6829 103.384 22.6958 103.296 22.7078C103.288 22.8582 103.331 23.0274 103.265 23.1121C103.027 23.4175 102.982 23.76 102.984 24.1235C102.984 24.1831 102.997 24.2698 102.964 24.298C102.69 24.5334 102.772 24.9127 102.585 25.2015C102.456 25.4012 102.513 25.7619 102.577 26.0298C102.616 26.1953 102.757 26.4145 103.053 26.3706C102.963 25.9693 103.282 26.1145 103.475 26.0639C103.371 25.6774 103.718 25.5661 103.898 25.3585C103.988 25.255 104.154 25.2209 104.262 25.1285C104.341 25.061 104.383 24.9494 104.441 24.8578C104.487 24.7853 104.526 24.706 104.583 24.6424C104.692 24.5197 104.881 24.422 104.913 24.2853C104.986 23.9674 105.144 23.8336 105.449 23.8924C105.519 23.3829 105.927 23.0585 106.059 22.5896C106.111 22.4038 106.485 22.3273 106.509 22.0062C106.512 21.9621 106.665 21.8613 106.719 21.729C106.803 21.5225 106.965 21.3477 107.094 21.1595C107.262 20.9431 107.363 20.6793 107.512 20.4456C107.802 19.9886 108.21 19.6217 108.52 19.1741C108.697 18.9182 108.876 18.6861 108.923 18.374C109.014 18.2562 109.072 18.13 109.116 17.9993C109.176 17.8179 109.227 17.633 109.282 17.4497C109.307 17.3663 109.366 17.2777 109.353 17.2007C109.282 16.7756 109.554 16.4555 109.675 16.0901Z" fill="#36AFC4"/>
<path d="M87.3164 13.003C87.4749 12.9414 87.6043 12.8468 87.7391 12.839C88.1084 12.8177 88.4801 12.8286 88.8506 12.8377C88.9206 12.8394 88.9894 12.8911 89.0831 12.9298C89.1671 12.8222 89.2976 12.7314 89.4625 12.946C89.4865 12.9772 89.5368 13.0057 89.5761 13.0072C89.8046 13.0158 90.049 12.9573 90.1898 13.2243C90.2113 13.2649 90.3632 13.247 90.4548 13.2469C90.6497 13.2468 90.7926 13.2964 90.7653 13.4817C90.9865 13.5689 91.1868 13.6429 91.3817 13.7284C91.4296 13.7494 91.5012 13.8222 91.492 13.8467C91.3713 14.1656 91.7005 14.2701 91.8255 14.4534C92.0059 14.7178 92.2709 14.9392 92.2745 15.2781C92.2799 15.7758 92.2735 16.2761 92.2237 16.7708C92.2052 16.9542 92.0766 17.1467 91.9473 17.2933C91.8647 17.387 91.6886 17.4044 91.5182 17.47C91.5407 17.7441 91.414 17.9459 91.043 17.8844C90.9529 18.1683 90.7381 18.2615 90.4823 18.3062C90.3151 18.3355 90.1493 18.3718 89.927 18.416C89.8036 18.2956 89.433 18.2033 89.5403 17.8671C89.6089 17.6525 89.6525 17.3433 89.923 17.3289C90.0252 17.122 90.1214 16.9587 90.1855 16.7845C90.2175 16.6974 90.191 16.5903 90.191 16.4624C89.8461 16.4624 89.4937 16.4302 89.1533 16.4778C89.0105 16.4977 88.8976 16.6919 88.7625 16.7966C88.6874 16.8548 88.5896 16.9374 88.5108 16.9294C88.32 16.9099 88.2268 16.9993 88.1188 17.1255C87.9579 17.3135 87.7696 17.4795 87.5938 17.6557C87.5748 17.6746 87.548 17.6983 87.5474 17.7204C87.5371 18.1057 87.2143 18.4267 87.2999 18.8291C87.3142 18.8967 87.3676 19.0127 87.4008 19.012C87.7877 19.0036 87.8329 19.2283 87.7763 19.556C87.8941 19.556 87.9974 19.538 88.0891 19.5617C88.1618 19.5805 88.259 19.6389 88.2786 19.6997C88.4094 20.1069 88.6297 20.4073 89.1124 20.4505C89.2571 20.4635 89.549 20.95 89.5248 21.1392C89.7886 21.2091 90.1093 21.232 90.0814 21.6368C90.3941 21.5963 90.5701 21.7165 90.5738 21.9572C90.7087 21.9968 90.8241 22.0087 90.9136 22.0614C91.0991 22.1706 91.3419 22.2525 91.264 22.5484C91.2582 22.5701 91.3499 22.6463 91.3935 22.6442C91.6382 22.6322 91.6892 22.8185 91.7971 22.9647C91.9069 23.1136 92.1121 23.2132 92.1789 23.372C92.2907 23.638 92.494 23.6103 92.7279 23.6035C92.7279 23.8396 92.7279 24.0645 92.7279 24.2579C92.9972 24.4023 93.2336 24.5347 93.4755 24.6574C93.9194 24.8825 93.7668 25.2903 93.8077 25.6393C93.8114 25.6716 93.8093 25.7275 93.8239 25.7322C94.0975 25.821 94.0136 26.0476 94.039 26.2429C94.3421 26.3335 94.4896 26.5821 94.5779 26.8438C94.6911 27.1794 94.8996 27.4321 95.1669 27.6544C95.1817 27.6668 95.1983 27.6815 95.2045 27.6983C95.3093 27.9822 95.454 28.2599 95.5047 28.5527C95.5565 28.8517 95.5274 29.1662 95.5097 29.4726C95.5026 29.5947 95.431 29.7133 95.3836 29.8481C95.3646 29.8419 95.4318 29.8532 95.4319 29.8654C95.4374 30.2517 95.4732 30.6441 95.4075 31.0199C95.3932 31.1019 95.2671 31.2342 95.2681 31.3793C95.2693 31.5596 95.2906 31.7332 95.0877 31.8646C95.0157 31.9112 95.0318 32.0964 95.0238 32.2194C95.0071 32.4759 95.0569 32.7285 94.6483 32.7933C94.5014 32.8165 94.4016 33.1145 94.2802 33.2871C94.221 33.3713 94.1714 33.4644 94.0999 33.5376C93.9805 33.6597 93.8471 33.7691 93.7196 33.8839C93.7364 33.9075 93.7532 33.9311 93.77 33.9547C93.5359 33.9547 93.3018 33.9547 93.0575 33.9547C93.0328 34.1757 93.0607 34.414 92.7546 34.4562C92.7329 34.4592 92.7201 34.5205 92.7029 34.5545C92.5446 34.8665 92.3156 35.0193 91.9258 34.9869C91.7934 34.9759 91.5732 35.1417 91.518 35.2748C91.4473 35.445 91.3539 35.4605 91.2214 35.4407C90.8867 35.3908 90.6535 35.5414 90.4495 35.7701C90.3014 35.936 90.1492 35.8871 90.0442 35.7348C89.9124 35.5436 89.8413 35.5507 89.767 35.7655C89.7008 35.957 89.3011 35.9946 89.0872 35.8268C89.0198 35.774 88.9743 35.6953 88.942 35.6563C88.7438 35.7897 88.5648 35.9811 88.3475 36.039C88.0641 36.1145 87.7503 36.0855 87.4495 36.0992C87.3288 36.1047 87.2067 36.0944 87.0874 36.1083C86.8904 36.1311 86.7291 36.1222 86.7394 35.8701C86.7422 35.8013 86.7398 35.7322 86.7398 35.6409C86.6584 35.6409 86.5724 35.6179 86.5116 35.6457C86.3888 35.7019 86.2796 35.7858 86.1648 35.8582C86.0884 35.7341 86.0121 35.6101 85.9107 35.4453C85.6755 35.4453 85.3772 35.4321 85.0808 35.4496C84.8506 35.4632 84.7142 35.4119 84.7538 35.2051C84.4949 35.1704 84.2527 35.1614 84.0306 35.0924C83.9711 35.0739 83.9732 34.872 83.9418 34.7312C83.8303 34.7312 83.6766 34.7298 83.5228 34.7315C83.365 34.7333 83.2355 34.7481 83.2003 34.5205C83.1843 34.4175 82.9744 34.3402 82.8484 34.2569C82.818 34.2368 82.7709 34.2412 82.7324 34.2312C82.2518 34.1064 82.2241 34.0769 82.2308 33.5915C82.2334 33.3996 82.2233 33.231 82.0531 33.0884C81.9846 33.031 81.9853 32.897 81.9448 32.7664C81.8725 32.7664 81.7714 32.7669 81.6703 32.7664C81.292 32.7644 81.2071 32.6956 81.1811 32.3224C81.165 32.0916 81.1781 31.859 81.1781 31.5917C81.1652 31.5905 81.088 31.5919 81.0153 31.5753C80.7649 31.5181 80.706 31.3154 80.8655 31.1255C80.9291 31.0497 80.9501 30.9412 80.9928 30.8486C81.0376 30.7516 81.0949 30.6588 81.1288 30.5586C81.1582 30.4715 81.1741 30.3767 81.1758 30.285C81.1817 29.969 81.1262 29.6421 81.4556 29.4153C81.5039 29.382 81.4906 29.2495 81.4854 29.164C81.4727 28.9532 81.4814 28.7686 81.7965 28.8432C81.7965 28.6906 81.7965 28.5735 81.7965 28.4573C81.9104 28.4241 82.0134 28.3691 82.1162 28.3692C82.3547 28.3695 82.5687 28.3743 82.5507 28.0485C82.549 28.0184 82.6972 27.9477 82.772 27.9524C83.0268 27.9683 83.2432 27.9091 83.4593 27.7715C83.7872 27.5627 84.1974 27.6294 84.5241 27.8166C84.7041 27.9198 84.9587 27.8962 85.1741 27.9503C85.309 27.9842 85.4336 28.0564 85.5628 28.1115C85.6197 28.1357 85.6753 28.1776 85.7334 28.1811C85.8953 28.1907 86.0583 28.1844 86.2355 28.1844C86.2355 28.3405 86.2355 28.4762 86.2355 28.5705C86.4636 28.8577 86.9259 28.7156 87.0592 29.0928C87.0682 29.1184 87.1447 29.1189 87.187 29.1371C87.3087 29.1897 87.429 29.2453 87.5499 29.2997C87.5423 29.3283 87.5348 29.3568 87.5273 29.3853C87.8556 29.3853 88.1838 29.3853 88.513 29.3853C88.498 29.1478 88.4851 28.9424 88.4744 28.7721C88.219 28.7152 87.9373 28.7266 87.7935 28.5966C87.6804 28.4943 87.7374 28.2176 87.7178 28.0083C87.4764 28.0083 87.2206 28.0482 87.2247 27.6916C86.9373 27.7692 86.736 27.6736 86.5848 27.4666C86.545 27.4121 86.4971 27.3604 86.4703 27.3002C86.3172 26.9566 86.3118 26.9729 85.8766 26.804C85.7625 26.7596 85.7073 26.5743 85.6193 26.4452C85.4357 26.5604 85.314 26.3873 85.2725 26.2334C85.2261 26.0614 85.1419 26.0301 84.9949 26.0437C84.7917 26.0625 84.7616 25.9552 84.7608 25.7888C84.7588 25.3686 84.7519 25.3679 84.3343 25.3293C84.0673 25.3046 83.8838 25.1415 83.7759 24.9374C83.6275 24.6566 83.4554 24.4026 83.2144 24.191C83.2011 24.1794 83.1916 24.15 83.1816 24.1506C82.9326 24.1648 82.7773 24.1042 82.6335 23.8569C82.5491 23.7117 82.4922 23.6315 82.5116 23.4569C82.539 23.2099 82.5053 22.9522 82.4616 22.705C82.4493 22.6357 82.2774 22.6034 82.2363 22.5258C82.1375 22.3397 81.9523 22.1864 81.9983 21.9335C82.0101 21.8687 81.8792 21.7107 81.8235 21.7148C81.441 21.7435 81.4788 21.503 81.4865 21.2721C81.4891 21.193 81.4869 21.1138 81.4869 21.0189C81.2064 20.9696 81.1117 20.823 81.2127 20.5499C81.2497 20.4498 81.2041 20.3233 81.2067 20.2091C81.2153 19.8204 81.1099 19.3761 81.2711 19.0579C81.4593 18.6865 81.4659 18.3392 81.4984 17.9654C81.5063 17.8745 81.6562 17.795 81.7959 17.655C81.7174 17.2049 81.7624 16.6334 82.1081 16.2324C82.4235 15.8667 82.5815 15.2977 83.2054 15.1728C83.2177 14.9311 83.268 14.6976 83.6391 14.6615C83.7555 14.6501 83.855 14.471 83.9606 14.3672C83.996 14.3324 84.0187 14.2757 84.0604 14.2584C84.2829 14.1661 84.5095 14.083 84.6978 13.9417C84.806 13.8691 84.9045 13.7722 85.0241 13.7284C85.4886 13.5585 86.0571 13.5106 86.4 13.2157C86.7195 12.9409 86.9997 13.0783 87.3164 13.003Z" fill="#36AFC4"/>
<path d="M39.3224 24.0668C39.3256 23.8898 39.2757 23.7215 39.4777 23.6425C39.5159 23.6276 39.5508 23.5708 39.562 23.5269C39.628 23.2698 39.6696 23.0048 39.7574 22.7557C39.7857 22.6755 39.9294 22.6356 40.0085 22.5847C40.1753 22.2086 40.1948 21.793 40.4587 21.4202C40.5915 21.2328 40.8589 20.9999 40.7794 20.6736C40.7663 20.6201 40.8124 20.5475 40.8422 20.4893C40.9179 20.3414 40.9999 20.1967 41.1056 20.0025C41.3045 19.9651 41.3733 19.7152 41.4274 19.5098C41.4824 19.3013 41.4569 19.0784 41.6876 18.952C41.7236 18.9323 41.7355 18.8572 41.7452 18.8053C41.7561 18.7475 41.7274 18.6562 41.758 18.632C42.1397 18.3289 42.1999 17.778 42.6329 17.5146C42.6757 17.4886 42.6845 17.4087 42.7114 17.355C42.7503 17.2774 42.7787 17.1448 42.8333 17.1327C43.2792 17.0338 43.3544 16.541 43.6902 16.3508C43.9474 16.2051 44.0938 16.0063 44.2096 15.7579C44.2295 15.7153 44.2803 15.6547 44.3146 15.6562C44.6345 15.6696 44.7824 15.3579 45.0614 15.2781C45.2906 15.2126 45.4924 15.0591 45.7534 15.0962C45.7819 15.1002 45.822 15.015 45.8588 14.973C45.9046 14.9207 45.9446 14.838 46.0009 14.8243C46.3863 14.7303 46.7762 14.6544 47.1625 14.5641C47.2449 14.5449 47.3179 14.4884 47.3968 14.4526C47.56 14.3787 47.7234 14.2866 47.8572 14.5066C47.8787 14.542 47.9483 14.5634 47.9965 14.5651C48.1777 14.5715 48.3593 14.5668 48.5408 14.567C48.815 14.5673 49.0998 14.814 49.1481 15.0936C49.4807 15.1163 49.5862 15.3433 49.6351 15.6896C49.7437 15.5766 49.8089 15.4502 49.9053 15.4191C50.2704 15.301 50.5998 15.0318 51.0153 15.113C51.3106 15.1708 51.5903 15.2677 51.7931 15.518C51.8342 15.5688 51.9406 15.5864 52.0167 15.586C52.1855 15.5851 52.2922 15.6263 52.2712 15.8224C52.2335 16.1743 52.2956 16.4254 52.7223 16.5297C52.8852 16.5695 53.0857 16.7853 53.0652 17.085C53.0297 17.604 53.0553 18.1271 53.0575 18.6484C53.0586 18.9011 53.0098 19.1633 53.2047 19.3803C53.2329 19.4118 53.2368 19.4727 53.2371 19.52C53.2397 19.9083 53.2335 20.2967 53.2397 20.685C53.257 21.771 53.2721 22.8571 53.3067 23.9426C53.3118 24.1024 53.454 24.2554 53.4705 24.4177C53.5128 24.8317 53.5048 25.2507 53.548 25.6645C53.567 25.8469 53.6842 26.0176 53.7162 26.2006C53.7582 26.441 53.76 26.6884 53.7866 27.0278C53.8968 26.9439 53.9546 26.8777 54.0273 26.8493C54.1654 26.7953 54.3107 26.7338 54.4553 26.7274C54.8375 26.7105 55.2209 26.7227 55.6037 26.7207C55.8599 26.7194 56.1279 26.7722 56.3223 26.5216C56.3568 26.477 56.4742 26.4721 56.5469 26.4849C56.8125 26.532 57.1691 26.9907 57.1703 27.2706C57.171 27.431 57.1545 27.5937 57.177 27.751C57.191 27.8493 57.2449 27.956 57.313 28.0297C57.4636 28.1925 57.5416 28.7105 57.4051 28.8879C57.3637 28.9418 57.2601 28.9485 57.1693 28.9827C57.1693 29.3466 57.1442 29.7189 57.1775 30.0859C57.2032 30.37 57.038 30.5074 56.8666 30.6675C56.7871 30.7417 56.7335 30.8424 56.6618 30.9258C56.6015 30.9958 56.5438 31.0853 56.4646 31.1191C56.1151 31.2682 55.9132 31.5581 55.7184 31.8563C55.4714 32.2346 55.2056 32.459 54.7444 32.3913C54.5841 32.3678 54.4014 32.4961 54.2288 32.5548C54.1647 32.5765 54.1006 32.6151 54.0361 32.6159C53.5834 32.6212 53.1303 32.6269 52.6782 32.6106C52.6033 32.6079 52.5323 32.4983 52.437 32.4195C52.2618 32.4044 52.0312 32.4054 51.8125 32.3551C51.728 32.3357 51.6558 32.2082 51.6041 32.1156C51.5278 31.9789 51.4626 31.8602 51.2686 31.8912C51.2015 31.9019 51.0824 31.8679 51.0592 31.8199C50.9883 31.673 50.8873 31.6389 50.738 31.6511C50.6898 31.655 50.6117 31.6156 50.5906 31.5742C50.4613 31.3199 50.3444 31.0594 50.2117 30.7761C50.1047 30.736 49.9522 30.6788 49.7929 30.6191C49.7929 30.4707 49.7929 30.3316 49.7929 30.1956C49.5201 30.1196 49.5201 30.1197 49.4843 29.5757C49.2777 29.3481 49.1311 29.1866 48.9844 29.0251C49.0044 29.0081 49.0243 28.9911 49.0442 28.9741C48.9068 28.8629 48.5979 29.1061 48.5818 28.7537C48.5741 28.583 48.5956 28.4111 48.6045 28.2272C48.5399 28.2767 48.4173 28.3268 48.3691 28.4165C48.276 28.5901 48.2543 28.8051 48.1481 28.9674C48.0334 29.1425 47.8812 29.3431 47.6993 29.4115C47.4985 29.487 47.4286 29.5659 47.4264 29.7625C47.4251 29.8858 47.3845 30.0086 47.3596 30.1423C47.233 30.1423 47.114 30.1423 46.995 30.1423C47.0088 30.1626 47.0227 30.1829 47.0366 30.2031C46.9098 30.3113 46.783 30.4195 46.6368 30.5442C46.6212 30.5942 46.6183 30.7471 46.5439 30.7994C46.4743 30.8484 46.3288 30.7919 46.217 30.7797C46.1288 30.7701 46.0411 30.7572 45.9179 30.7413C45.9179 30.9045 45.9247 31.0516 45.9163 31.1978C45.9038 31.4182 45.7944 31.5028 45.5731 31.4259C45.5368 31.4133 45.4616 31.4275 45.4454 31.454C45.2365 31.7969 44.9834 31.9648 44.5421 31.8577C44.3579 31.813 44.1258 31.9889 43.9096 32.0397C43.7609 32.0746 43.6001 32.0873 43.4484 32.0726C43.2788 32.0561 43.115 31.973 42.946 31.9626C42.6888 31.9468 42.4386 31.8496 42.1662 31.944C42.0564 31.982 41.896 31.8756 41.7447 31.8308C41.7447 31.6928 41.7447 31.565 41.7447 31.4864C41.4532 31.1797 41.1468 31.0872 40.7771 31.2177C40.752 31.2266 40.6626 31.0554 40.5889 30.9473C40.0788 30.9087 40.0788 30.9087 40.0342 30.1528C39.7698 30.2182 39.5144 30.1293 39.3857 29.9236C39.2321 29.6778 39.0558 29.4575 38.9953 29.1209C38.886 28.5133 38.8297 27.9141 38.8391 27.3028C38.8461 26.8475 38.7688 26.3787 39.0661 25.9684C39.1002 25.9215 39.0885 25.8163 39.0608 25.7548C38.9218 25.447 39.0422 24.5994 39.2572 24.3381C39.3061 24.2786 39.302 24.1759 39.3224 24.0668ZM45.1287 24.7453C45.153 24.5555 45.1525 24.3536 45.3705 24.259C45.2392 23.866 45.6179 23.6474 45.7024 23.3212C45.798 22.9521 45.9951 22.6077 46.1625 22.2594C46.2062 22.1685 46.3035 22.103 46.396 22.0048C46.4117 21.4882 46.5449 21.2402 46.8918 21.1354C46.8591 20.8502 46.8923 20.5884 47.0841 20.3392C47.1795 20.2154 47.1123 19.9029 47.2078 19.8562C47.5034 19.7119 47.3108 19.3634 47.5864 19.1741C47.7732 19.0457 47.75 18.615 47.8207 18.3194C47.9448 18.2756 48.0935 18.1779 48.0824 18.1039C48.0311 17.7623 48.3892 17.6045 48.4143 17.3051C48.4162 17.2829 48.5076 17.2682 48.5693 17.2458C48.5122 17.1822 48.4596 17.1238 48.4136 17.0725C48.4794 16.9774 48.543 16.8857 48.6097 16.7893C48.414 16.6938 48.2605 16.4243 48.0962 16.8027C48.046 16.9185 47.8213 17.0211 47.6768 17.0206C47.4449 17.0199 47.2945 17.095 47.1592 17.2658C47.1173 17.3186 47.0284 17.3345 46.9468 17.3744C46.9687 17.5976 46.924 17.741 46.645 17.8392C46.397 17.9265 46.2984 18.2949 45.98 18.3552C45.9624 18.3585 45.9482 18.4014 45.9396 18.4281C45.8515 18.7016 45.7199 18.9707 45.6896 19.2507C45.6539 19.5804 45.4767 19.7169 45.2503 19.7597C45.1622 20.0795 45.056 20.3513 45.0205 20.6319C44.9945 20.8371 44.9998 21.0026 44.7533 20.9475C44.5133 21.5446 44.2838 22.1156 44.059 22.675C44.0982 22.7429 44.2394 22.8824 44.2106 22.9555C44.0747 23.2992 44.0014 23.6502 43.9227 24.0081C43.8869 24.1709 43.8118 24.3436 43.7983 24.5268C43.7906 24.6318 43.7805 24.7434 43.7386 24.8377C43.673 24.9852 43.5176 25.1169 43.5092 25.2616C43.4801 25.7638 43.498 26.2687 43.498 26.834C43.6762 26.6501 43.7826 26.4774 43.9376 26.3967C44.1155 26.3041 44.1284 26.0735 44.2639 26.0209C44.542 25.9129 44.6446 25.7387 44.6506 25.4643C44.6519 25.4052 44.6983 25.3421 44.7363 25.2899C44.8015 25.2003 44.8799 25.1202 44.9465 25.0315C45.0043 24.9545 45.0536 24.8712 45.1287 24.7453Z" fill="#36AFC4"/>
<path d="M24.2842 32.7018C24.1344 32.3981 23.8758 32.4347 23.6303 32.4599C23.3422 32.4894 23.2256 32.3667 23.2509 32.0815C23.2675 31.8954 23.221 31.8116 23.0105 31.7027C22.7751 31.5809 22.3527 31.4591 22.4652 30.9935C22.4788 30.9373 22.38 30.7955 22.3242 30.7902C21.9885 30.7583 21.9619 30.5443 22.0012 30.2859C21.6984 30.1621 21.5704 29.9268 21.5096 29.6243C21.4689 29.4216 21.3665 29.2319 21.3181 29.03C21.2819 28.8792 21.3 28.716 21.2713 28.5626C21.2451 28.4224 21.1915 28.2869 21.1442 28.1513C21.1131 28.0621 21.0423 27.9773 21.0398 27.8891C21.0126 26.9196 20.9904 25.9498 20.9781 24.98C20.9742 24.6662 20.9088 24.3224 21.259 24.1151C21.2883 24.0978 21.2779 24.0008 21.2747 23.9414C21.2343 23.2066 21.322 22.4908 21.5004 21.7743C21.5942 21.3976 21.4714 20.9586 21.5939 20.5986C21.7759 20.0639 21.7383 19.5347 21.7615 18.998C21.7663 18.8846 21.8551 18.7737 21.9106 18.6645C21.921 18.644 21.9749 18.6408 21.979 18.6228C22.0467 18.3238 22.1181 18.0252 22.1708 17.7234C22.2062 17.5207 22.199 17.3101 22.2391 17.1088C22.2621 16.9936 22.3419 16.8898 22.4293 16.7932C22.4668 16.0696 23.019 15.974 23.674 16.0878C23.8678 16.1215 23.9618 16.1988 23.9863 16.42C24.0025 16.5659 24.1252 16.7283 24.2455 16.8279C24.4659 17.0103 24.4847 17.2527 24.5084 17.4969C24.5256 17.6753 24.5034 17.8573 24.5145 18.0366C24.5223 18.1633 24.4287 18.3445 24.6663 18.3809C24.6841 18.3837 24.708 18.5168 24.6876 18.5743C24.549 18.9629 24.7053 19.3473 24.6942 19.7336C24.6823 20.1452 24.6809 20.5579 24.6984 20.969C24.7033 21.0834 24.7891 21.1953 24.8429 21.3058C24.8639 21.3488 24.9251 21.3856 24.9239 21.4237C24.9105 21.8381 24.8847 22.2521 24.8718 22.6665C24.8695 22.7419 24.9278 22.8185 24.9284 22.8947C24.9334 23.5151 24.9109 24.1365 24.9389 24.7557C24.9559 25.1309 25.0625 25.5014 25.0988 25.8769C25.1129 26.0237 25.0451 26.1786 25.0136 26.3297C25.0099 26.3474 24.9903 26.3664 24.9942 26.3803C25.0606 26.617 25.0614 26.9783 25.2129 27.0617C25.4863 27.2122 25.3813 27.4006 25.4093 27.5833C25.4153 27.6226 25.4102 27.6635 25.4102 27.684C25.7105 27.9328 26.056 28.1045 26.1995 28.5022C26.2484 28.6377 26.3575 28.7986 26.5655 28.785C26.7044 28.776 26.8444 28.7833 26.9684 28.7833C27.1264 28.5515 27.2862 28.3384 27.4231 28.1114C27.6389 27.7537 27.8392 27.3865 28.0464 27.0235C28.0786 26.9671 28.1154 26.9132 28.1449 26.8554C28.1794 26.7878 28.2043 26.715 28.2406 26.6483C28.3027 26.5341 28.3705 26.4228 28.4739 26.3268C28.5844 26.16 28.3868 25.8567 28.7487 25.8C28.7566 25.7987 28.7607 25.765 28.7644 25.7461C28.8409 25.3524 28.9277 24.9632 29.2263 24.6656C29.1037 24.3027 29.4905 24.0895 29.4884 23.7567C29.4871 23.5419 29.4989 23.3203 29.5517 23.1138C29.603 22.913 29.6702 22.6804 29.8107 22.5481C29.9596 22.408 29.9435 22.2724 29.9716 22.1139C29.9938 21.9885 30.0553 21.829 30.1517 21.7663C30.3796 21.6179 30.4755 21.4371 30.4461 21.171C30.4329 21.0523 30.4438 20.9308 30.4438 20.7885C30.6797 20.7606 30.7519 20.6187 30.75 20.3848C30.7478 20.1091 30.6958 19.8379 30.8983 19.5645C31.032 19.384 30.9619 19.0644 31.0488 18.832C31.2156 18.3858 31.1789 17.9239 31.2286 17.4682C31.2497 17.2753 31.3526 17.093 31.3994 16.9013C31.4665 16.6259 31.2411 16.2679 31.6317 16.0851C31.5371 15.7852 31.8266 15.6972 31.9446 15.5149C31.9627 15.487 31.9975 15.461 32.0293 15.4526C32.3772 15.3611 32.6691 15.1162 33.068 15.1486C33.5539 15.188 34.0453 15.1579 34.5239 15.1579C34.7304 15.4167 35.0143 15.6336 34.8874 15.9499C35.132 16.1187 35.3417 16.2609 35.5476 16.4086C35.5744 16.4279 35.5946 16.4756 35.5948 16.5102C35.5986 17.043 35.5926 17.576 35.6008 18.1087C35.6134 18.9279 35.5977 19.7499 35.6629 20.5652C35.7354 21.4707 35.8893 22.369 35.8445 23.2836C35.8387 23.4027 35.9335 23.526 35.9784 23.6486C36.0139 23.7456 36.0655 23.843 36.0729 23.943C36.094 24.2296 36.0735 24.5208 36.1122 24.8043C36.1558 25.1243 36.2414 25.4389 36.3185 25.7535C36.3486 25.8764 36.4061 25.9923 36.4493 26.112C36.4944 26.2369 36.5373 26.3625 36.6 26.5413C36.8406 26.5965 36.8838 26.8629 36.8487 27.1295C36.8064 27.4513 36.9616 27.6415 37.1797 27.8267C37.2364 27.8749 37.266 27.9794 37.2711 28.0604C37.2837 28.2605 37.2771 28.462 37.2743 28.663C37.2692 29.0265 37.4014 29.3252 37.6665 29.5742C37.7211 29.6255 37.7477 29.729 37.7509 29.8099C37.7611 30.0707 37.751 30.3323 37.7556 30.5934C37.7583 30.7512 37.6907 30.9557 37.9635 30.9649C37.9783 30.9654 37.9935 30.9897 38.0064 31.0048C38.1192 31.1356 38.0272 31.9653 37.9259 32.1085C37.8296 32.2446 37.7875 32.4209 37.7286 32.5822C37.6752 32.7285 37.6315 32.8785 37.5825 33.0266C37.5798 33.035 37.5642 33.0395 37.5621 33.0477C37.4301 33.5618 37.0186 33.4125 36.6759 33.4266C36.6466 33.4279 36.6174 33.4324 36.6232 33.4872C36.5287 33.5674 36.4323 33.6455 36.3407 33.7288C36.3036 33.7625 36.2754 33.8065 36.2458 33.8477C36.174 33.9477 36.0926 34.1389 36.035 34.1318C35.8884 34.1136 35.677 34.296 35.5809 34.0231C35.5635 33.974 35.4501 33.9591 35.3708 33.9239C35.3626 33.9939 35.3549 34.06 35.3458 34.138C35.1007 34.138 34.8541 34.138 34.5938 34.138C34.5616 34.0091 34.5294 33.8796 34.4915 33.7278C34.3831 33.7278 34.2648 33.7278 34.1466 33.7278C33.6283 33.7277 33.6283 33.7277 33.6123 33.2479C33.209 33.0242 33.3059 32.5721 33.083 32.2807C33.1025 32.2629 33.1221 32.245 33.1416 32.2271C32.9383 32.1527 32.7287 32.091 32.5352 31.9962C32.4748 31.9666 32.4278 31.8482 32.4258 31.7692C32.4152 31.3477 32.4208 30.9258 32.4208 30.5084C31.9651 30.2696 31.9651 30.2696 31.9183 29.9995C31.7785 30.0873 31.6412 30.1734 31.5593 30.2248C31.454 30.3638 31.2981 30.5101 31.3212 30.5492C31.4401 30.7505 31.2767 30.8623 31.2261 31.0101C31.146 31.2441 31.0202 31.4231 30.7563 31.4579C30.5304 31.4877 30.4842 31.6214 30.499 31.8341C30.5216 32.161 30.3366 32.3685 30.0255 32.4678C29.8449 32.5254 29.6792 32.6302 29.4909 32.7216C29.5428 32.9844 29.3962 33.1064 29.1587 33.1761C28.9144 33.2479 28.6822 33.3768 28.4346 33.4168C28.1717 33.4591 27.8969 33.4263 27.6281 33.4263C27.4842 33.7092 27.0813 33.8354 26.6328 33.706C26.4453 33.6518 26.2151 33.7129 26.0773 33.4507C26.0322 33.3648 25.7025 33.438 25.5038 33.4247C25.0381 33.3937 24.6904 33.1665 24.4463 32.7678C24.424 32.7315 24.3556 32.7237 24.2842 32.7018Z" fill="#36AFC4"/>
</svg>
